<?xml version="1.0" encoding="UTF-8"?>
<svg id="Layer_1" data-name="Layer 1" xmlns="http://www.w3.org/2000/svg" viewBox="0 0 16 16">
  <defs>
    <style>
      .cls-1 {
        fill: #b9b9b9;
      }

      .cls-1, .cls-2, .cls-3 {
        stroke-width: 0px;
      }

      .cls-2 {
        fill: #666;
      }

      .cls-3 {
        fill: #fff;
      }
    </style>
  </defs>
  <path class="cls-3" d="m4,3h8v10H4V3Z"/>
  <path class="cls-1" d="m1,14h2v1H1v-1Zm3,0h2v1h-2v-1Zm6,0h2v1h-2v-1Zm3,0h2v1h-2v-1Zm-6,0h2v1h-2v-1ZM1,1h2v1H1V1Zm3,0h2v1h-2V1Zm6,0h2v1h-2V1Zm3,0h2v1h-2V1Zm-6,0h2v1h-2V1Z"/>
  <path class="cls-2" d="m4,3v10h8V3H4Zm1,1h6v8h-6V4Z"/>
  <path class="cls-1" d="m6,5h4v6h-4v-6Z"/>
</svg>